<svg xmlns="http://www.w3.org/2000/svg" xmlns:xlink="http://www.w3.org/1999/xlink" aria-hidden="true" role="img" class="iconify iconify--fluent" width="32" height="32" preserveAspectRatio="xMidYMid meet" viewBox="0 0 12 12"><path fill="#888888" d="M3 1a2 2 0 0 0-2 2v3a2 2 0 0 0 2 2h3.085a1.5 1.5 0 1 0 0-1H3a1 1 0 0 1-1-1V3a1 1 0 0 1 1-1h3a1 1 0 0 1 1 1h1a2 2 0 0 0-2-2H3Zm6 10a2 2 0 0 0 2-2V6a2 2 0 0 0-2-2H5.915a1.5 1.5 0 1 0 0 1H9a1 1 0 0 1 1 1v3a1 1 0 0 1-1 1H6a1 1 0 0 1-1-1H4a2 2 0 0 0 2 2h3Z"></path></svg>