<svg xmlns="http://www.w3.org/2000/svg" xmlns:xlink="http://www.w3.org/1999/xlink" aria-hidden="true" role="img" class="iconify iconify--material-symbols" width="32" height="32" preserveAspectRatio="xMidYMid meet" viewBox="0 0 24 24"><path fill="#888888" d="M5 21q-.825 0-1.413-.587Q3 19.825 3 19V5q0-.825.587-1.413Q4.175 3 5 3h14q.825 0 1.413.587Q21 4.175 21 5v14q0 .825-.587 1.413Q19.825 21 19 21Zm10.15-2h2.125L19 17.275V16h-.85Zm-7.5-5l3.025-3l2 2l5.075-5.1l-1.4-1.4l-3.675 3.675l-2-2L6.25 12.6ZM5 19h.85l3-3H6.725L5 17.725V19Zm8.525 0l3-3H14.4l-3 3ZM9.8 19l3-3h-2.125l-3 3Z"></path></svg>